<svg height="512" viewBox="0 0 58 58" width="512" xmlns="http://www.w3.org/2000/svg"><g id="Page-1" fill="none" fill-rule="evenodd"><g id="134---Copy-Files" fill-rule="nonzero"><path id="Shape" d="m44 4h10c2.209139 0 4 1.790861 4 4v46c0 2.209139-1.790861 4-4 4h-36c-2.209139 0-4-1.790861-4-4z" fill="#3b97d3"/><path id="Shape" d="m48 9h-4c-.5522847 0-1-.44771525-1-1s.4477153-1 1-1h4c.5522847 0 1 .44771525 1 1s-.4477153 1-1 1z" fill="#9fc9d3"/><path id="Shape" d="m54 9h-2c-.5522847 0-1-.44771525-1-1s.4477153-1 1-1h2c.5522847 0 1 .44771525 1 1s-.4477153 1-1 1z" fill="#9fc9d3"/><path id="Shape" d="m51 23h-7c-.5522847 0-1-.4477153-1-1s.4477153-1 1-1h7c.5522847 0 1 .4477153 1 1s-.4477153 1-1 1z" fill="#285680"/><path id="Shape" d="m51 28h-7c-.5522847 0-1-.4477153-1-1s.4477153-1 1-1h7c.5522847 0 1 .4477153 1 1s-.4477153 1-1 1z" fill="#285680"/><path id="Shape" d="m51 33h-7c-.5522847 0-1-.4477153-1-1s.4477153-1 1-1h7c.5522847 0 1 .4477153 1 1s-.4477153 1-1 1z" fill="#285680"/><path id="Shape" d="m13 0h27c2.209139 0 4 1.790861 4 4v46c0 2.209139-1.790861 4-4 4h-36c-2.209139 0-4-1.790861-4-4v-37z" fill="#b0d3f0"/><path id="Shape" d="m13 0v9c0 2.209139-1.790861 4-4 4h-9z" fill="#90bae1"/><path id="Shape" d="m34 5h-6c-.5522847 0-1-.44771525-1-1s.4477153-1 1-1h6c.5522847 0 1 .44771525 1 1s-.4477153 1-1 1z" fill="#ecf0f1"/><path id="Shape" d="m40 5h-2c-.5522847 0-1-.44771525-1-1s.4477153-1 1-1h2c.5522847 0 1 .44771525 1 1s-.4477153 1-1 1z" fill="#ecf0f1"/><g fill="#2980ba"><path id="Shape" d="m17 19h-9c-.55228475 0-1-.4477153-1-1s.44771525-1 1-1h9c.5522847 0 1 .4477153 1 1s-.4477153 1-1 1z"/><path id="Shape" d="m37 19h-15c-.5522847 0-1-.4477153-1-1s.4477153-1 1-1h15c.5522847 0 1 .4477153 1 1s-.4477153 1-1 1z"/><path id="Shape" d="m37 24h-9c-.5522847 0-1-.4477153-1-1s.4477153-1 1-1h9c.5522847 0 1 .4477153 1 1s-.4477153 1-1 1z"/><path id="Shape" d="m23 24h-15c-.55228475 0-1-.4477153-1-1s.44771525-1 1-1h15c.5522847 0 1 .4477153 1 1s-.4477153 1-1 1z"/><path id="Shape" d="m17 29h-9c-.55228475 0-1-.4477153-1-1s.44771525-1 1-1h9c.5522847 0 1 .4477153 1 1s-.4477153 1-1 1z"/><path id="Shape" d="m37 29h-15c-.5522847 0-1-.4477153-1-1s.4477153-1 1-1h15c.5522847 0 1 .4477153 1 1s-.4477153 1-1 1z"/></g><path id="Shape" d="m47.467 42.6-6.667-5c-.1515088-.1136316-.3542148-.1319096-.5236068-.0472136s-.2763932.2578276-.2763932.4472136v1.5c0 .2761424-.2238576.5-.5.5h-11c-.2761424 0-.5.2238576-.5.5v5c0 .2761424.2238576.5.5.5h11c.2761424 0 .5.2238576.5.5v1.5c0 .189386.1070012.3625176.2763932.4472136s.372098.066418.5236068-.0472136l6.667-5c.1259029-.0944272.2-.2426213.2-.4s-.0740971-.3055728-.2-.4z" fill="#ff5364"/></g></g></svg>