<svg id="color" enable-background="new 0 0 24 24" height="512" viewBox="0 0 24 24" width="512" xmlns="http://www.w3.org/2000/svg"><path d="m12 6c-3.309 0-6 2.691-6 6s2.691 6 6 6 6-2.691 6-6-2.691-6-6-6z" fill="#2196f3"/><path d="m15 13h-2v2c0 .552-.448 1-1 1s-1-.448-1-1v-2h-2c-.552 0-1-.448-1-1s.448-1 1-1h2v-2c0-.552.448-1 1-1s1 .448 1 1v2h2c.552 0 1 .448 1 1s-.448 1-1 1z" fill="#fff"/><path d="m1.5 12c0-5.79 4.71-10.5 10.5-10.5 2.08 0 4.055.607 5.732 1.708l-1.512 1.512c-.471.47-.138 1.28.53 1.28h4.5c.414 0 .75-.336.75-.75v-4.5c0-.665-.806-1.004-1.28-.53l-1.914 1.914c-1.971-1.369-4.322-2.134-6.806-2.134-6.617 0-12 5.383-12 12 0 1.173.173 2.339.513 3.466.119.395.534.621.935.502.396-.12.621-.538.501-.935-.298-.987-.449-2.007-.449-3.033z" fill="#607d8b"/><path d="m23.487 8.534c-.12-.397-.535-.623-.935-.502-.396.12-.621.538-.501.935.298.987.449 2.007.449 3.033 0 5.79-4.71 10.5-10.5 10.5-2.075 0-4.048-.604-5.722-1.701l1.505-1.522c.468-.473.132-1.277-.533-1.277h-4.5c-.2 0-.393.08-.533.223-.141.142-.219.335-.217.535l.05 4.5c.006.667.819.99 1.283.519l1.878-1.898c1.967 1.361 4.312 2.121 6.789 2.121 6.617 0 12-5.383 12-12 0-1.173-.173-2.339-.513-3.466z" fill="#607d8b"/><path d="m12 6c-3.309 0-6 2.691-6 6s2.691 6 6 6v-2c-.552 0-1-.448-1-1v-2h-2c-.552 0-1-.448-1-1s.448-1 1-1h2v-2c0-.552.448-1 1-1z" fill="#1d83d4"/><path d="m12 8c-.552 0-1 .448-1 1v2h-2c-.552 0-1 .448-1 1s.448 1 1 1h2v2c0 .552.448 1 1 1z" fill="#dedede"/><g fill="#546d79"><path d="m12 0c-6.617 0-12 5.383-12 12 0 1.173.173 2.339.513 3.466.097.324.394.534.718.534.071 0 .144-.01.216-.032.396-.12.621-.538.501-.935-.297-.987-.448-2.007-.448-3.033 0-5.79 4.71-10.5 10.5-10.5z"/><path d="m7.25 18h-4.5c-.2 0-.393.08-.533.223-.141.142-.219.335-.217.535l.05 4.5c.004.449.374.742.757.742.186 0 .375-.069.526-.223l1.878-1.898c1.967 1.361 4.312 2.121 6.789 2.121v-1.5c-2.075 0-4.048-.604-5.722-1.701l1.505-1.522c.468-.473.132-1.277-.533-1.277z"/></g></svg>